<svg xmlns="http://www.w3.org/2000/svg" width="152" height="39" viewBox="0 0 152 39">
<g>
<path d="M 0.00 0.00 L 152.00 0.00 L 152.00 39.00 L 0.00 39.00 ZM 6.00 4.80 L 6.00 32.00 L 13.85 32.00 C20.36,32.00 22.28,31.61 25.07,29.73 C31.68,25.28 32.41,13.55 26.43,7.93 C24.16,5.80 22.73,5.46 14.92,5.15 ZM 130.00 3.00 L 130.00 32.13 L 132.75 31.82 C135.04,31.55 135.59,30.92 136.02,28.00 L 136.55 24.50 L 139.02 28.24 C141.03,31.27 142.11,31.98 144.75,31.99 C146.54,31.99 148.00,31.79 148.00,31.53 C148.00,31.27 146.57,29.03 144.82,26.55 L 141.64 22.03 L 144.88 17.52 L 148.12 13.00 L 144.64 13.00 C141.70,13.00 140.80,13.58 138.83,16.75 L 136.50 20.50 L 136.24 14.00 C135.87,4.42 135.38,3.00 132.48,3.00 ZM 37.32 30.83 C38.52,31.43 41.75,31.82 44.50,31.71 C49.16,31.51 49.52,31.31 49.82,28.74 C50.11,26.18 49.97,26.06 47.79,27.05 C46.16,27.79 44.62,27.80 42.72,27.08 C38.17,25.35 39.60,24.00 46.00,24.00 L 52.00 24.00 L 52.00 20.95 C52.00,14.01 42.59,10.39 36.67,15.04 C31.85,18.84 32.24,28.32 37.32,30.83 ZM 107.00 22.50 C107.00,31.92 107.02,32.00 109.45,32.00 C111.76,32.00 111.92,31.63 112.20,25.85 C112.52,19.40 114.11,17.06 117.36,18.31 C118.65,18.80 119.00,20.34 119.00,25.47 L 119.00 32.00 L 125.00 32.00 L 125.00 24.50 C125.00,18.33 124.64,16.64 123.00,15.00 C120.75,12.75 117.89,12.45 114.73,14.14 C113.13,15.00 112.50,15.00 112.21,14.14 C112.00,13.51 110.75,13.00 109.42,13.00 C107.03,13.00 107.00,13.12 107.00,22.50 ZM 56.14 23.23 L 59.27 32.00 L 66.68 32.00 L 70.24 22.45 L 73.80 12.89 L 70.23 13.20 C66.84,13.48 66.58,13.77 65.20,18.75 C64.40,21.64 63.42,24.00 63.02,24.00 C62.62,24.00 61.66,21.64 60.89,18.75 C59.60,13.90 59.25,13.48 56.25,13.19 C54.46,13.01 53.00,13.23 53.00,13.67 C53.00,14.10 54.41,18.41 56.14,23.23 ZM 76.82 23.25 L 77.14 32.00 L 84.57 32.00 C91.83,32.00 92.00,31.94 92.00,29.50 C92.00,27.20 91.63,27.00 87.50,27.00 L 83.00 27.00 L 82.99 18.25 C82.97,7.06 82.42,5.00 79.44,5.00 C77.37,5.00 77.08,5.53 76.80,9.75 C76.64,12.36 76.64,18.44 76.82,23.25 ZM 20.09 25.72 C19.21,26.39 17.26,26.95 15.75,26.97 L 13.00 27.00 L 13.00 10.00 L 15.78 10.00 C23.81,10.00 26.73,20.62 20.09,25.72 ZM 96.00 13.00 L 96.00 32.00 L 102.10 32.00 L 101.75 13.00 ZM 96.04 7.55 C98.04,9.96 101.50,8.98 101.50,6.00 C101.50,3.02 98.04,2.04 96.04,4.45 C94.99,5.71 94.99,6.29 96.04,7.55 ZM 46.00 19.06 C46.00,19.58 44.65,20.00 43.00,20.00 C39.61,20.00 38.98,18.46 41.99,17.50 C44.14,16.82 46.00,17.54 46.00,19.06 Z" fill="rgb(25,22,24)"/>
<path d="M 130.00 3.00 L 132.48 3.00 C135.38,3.00 135.87,4.42 136.24,14.00 L 136.50 20.50 L 138.83 16.75 C140.80,13.58 141.70,13.00 144.64,13.00 L 148.12 13.00 L 144.88 17.52 L 141.64 22.03 L 144.82 26.55 C146.57,29.03 148.00,31.27 148.00,31.53 C148.00,31.79 146.54,31.99 144.75,31.99 C142.11,31.98 141.03,31.27 139.02,28.24 L 136.55 24.50 L 136.02 28.00 C135.59,30.92 135.04,31.55 132.75,31.82 L 130.00 32.13 ZM 107.00 22.50 C107.00,13.12 107.03,13.00 109.42,13.00 C110.75,13.00 112.00,13.51 112.21,14.14 C112.50,15.00 113.13,15.00 114.73,14.14 C117.89,12.45 120.75,12.75 123.00,15.00 C124.64,16.64 125.00,18.33 125.00,24.50 L 125.00 32.00 L 119.00 32.00 L 119.00 25.47 C119.00,20.34 118.65,18.80 117.36,18.31 C114.11,17.06 112.52,19.40 112.20,25.85 C111.92,31.63 111.76,32.00 109.45,32.00 C107.02,32.00 107.00,31.92 107.00,22.50 ZM 76.82 23.25 C76.64,18.44 76.64,12.36 76.80,9.75 C77.08,5.53 77.37,5.00 79.44,5.00 C82.42,5.00 82.97,7.06 82.99,18.25 L 83.00 27.00 L 87.50 27.00 C91.63,27.00 92.00,27.20 92.00,29.50 C92.00,31.94 91.83,32.00 84.57,32.00 L 77.14 32.00 ZM 96.00 13.00 L 101.75 13.00 L 102.10 32.00 L 96.00 32.00 ZM 96.04 7.55 C94.99,6.29 94.99,5.71 96.04,4.45 C98.04,2.04 101.50,3.02 101.50,6.00 C101.50,8.98 98.04,9.96 96.04,7.55 Z" fill="rgb(227,157,37)"/>
<path d="M 6.00 18.40 L 6.00 4.80 L 14.92 5.15 C22.73,5.46 24.16,5.80 26.43,7.93 C32.41,13.55 31.68,25.28 25.07,29.73 C22.28,31.61 20.36,32.00 13.85,32.00 L 6.00 32.00 L 6.00 18.40 ZM 20.09 25.72 C26.73,20.62 23.81,10.00 15.78,10.00 L 13.00 10.00 L 13.00 18.50 L 13.00 27.00 L 15.75 26.97 C17.26,26.95 19.21,26.39 20.09,25.72 ZM 37.32 30.83 C32.24,28.32 31.85,18.84 36.67,15.04 C42.59,10.39 52.00,14.01 52.00,20.95 L 52.00 24.00 L 46.00 24.00 C39.60,24.00 38.17,25.35 42.72,27.08 C44.62,27.80 46.16,27.79 47.79,27.05 C49.97,26.06 50.11,26.18 49.82,28.74 C49.52,31.31 49.16,31.51 44.50,31.71 C41.75,31.82 38.52,31.43 37.32,30.83 ZM 46.00 19.06 C46.00,17.54 44.14,16.82 41.99,17.50 C38.98,18.46 39.61,20.00 43.00,20.00 C44.65,20.00 46.00,19.58 46.00,19.06 ZM 56.14 23.23 C54.41,18.41 53.00,14.10 53.00,13.67 C53.00,13.23 54.46,13.01 56.25,13.19 C59.25,13.48 59.60,13.90 60.89,18.75 C61.66,21.64 62.62,24.00 63.02,24.00 C63.42,24.00 64.40,21.64 65.20,18.75 C66.58,13.77 66.84,13.48 70.23,13.20 L 73.80 12.89 L 70.24 22.45 L 66.68 32.00 L 62.98 32.00 L 59.27 32.00 L 56.14 23.23 Z" fill="rgb(242,245,242)"/>
</g>
</svg>